<?xml version="1.0" encoding="iso-8859-1"?>
<!-- Generator: Adobe Illustrator 19.0.0, SVG Export Plug-In . SVG Version: 6.00 Build 0)  -->
<svg version="1.1" id="Layer_1" xmlns="http://www.w3.org/2000/svg" xmlns:xlink="http://www.w3.org/1999/xlink" x="0px" y="0px"
	 viewBox="0 0 496 496" style="enable-background:new 0 0 496 496;" xml:space="preserve">
<g>
	<path style="fill:#8EE3E8;" d="M428.8,204.1c-8-20.8-28-36-52-36c-26.4,0-48.8,18.4-54.4,43.2c-2.4-0.8-5.6-1.6-8.8-1.6
		c-5.6,0-10.4,1.6-15.2,4c-9.6-12.8-24-20.8-41.6-20.8c-22.4,0-41.6,14.4-48.8,34.4c-3.2-0.8-5.6-1.6-8.8-1.6
		c-12,0-23.2,7.2-28.8,16.8c-3.2-2.4-8-4.8-12-4.8c-10.4,0-19.2,8.8-19.2,19.2s8.8,19.2,19.2,19.2c4,0,8-1.6,11.2-4
		c5.6,11.2,16.8,18.4,29.6,18.4c8.8,0,16.8-3.2,23.2-9.6c8.8,8,21.6,13.6,34.4,13.6c17.6,0,33.6-8.8,43.2-23.2
		c4,1.6,8.8,3.2,13.6,3.2c10.4,0,19.2-4.8,24.8-12c8,7.2,18.4,12.8,29.6,14.4c8,20.8,28,36,52,36c30.4,0,55.2-24.8,55.2-55.2
		C476,231.3,456,208.1,428.8,204.1z"/>
	<path style="fill:#8EE3E8;" d="M209.6,228.1c-3.2-0.8-5.6-1.6-8.8-1.6"/>
	<path style="fill:#8EE3E8;" d="M299.2,214.5c-9.6-12.8-24-20.8-41.6-20.8"/>
	<path style="fill:#8EE3E8;" d="M322.4,211.3c-2.4-0.8-5.6-1.6-8.8-1.6"/>
</g>
<path style="fill:#76D3CE;" d="M140,258.5c0,10.4,8.8,19.2,19.2,19.2c4,0,8-1.6,11.2-4c5.6,11.2,16.8,18.4,29.6,18.4
	c8.8,0,16.8-3.2,23.2-9.6c8.8,8,21.6,13.6,34.4,13.6c17.6,0,33.6-8.8,43.2-23.2c4,1.6,8.8,3.2,13.6,3.2c10.4,0,19.2-4.8,24.8-12
	c8,7.2,18.4,12.8,29.6,14.4c8,20.8,28,36,52,36c30.4,0,55.2-24.8,55.2-55.2c0-28-20.8-51.2-48-55.2"/>
<circle style="fill:#8EE3E8;" cx="179.2" cy="165.7" r="19.2"/>
<path style="fill:#76D3CE;" d="M164.8,180.1c8,8,20,8,27.2,0c8-8,8-20,0-27.2"/>
<circle style="fill:#8EE3E8;" cx="243.2" cy="153.7" r="7.2"/>
<path style="fill:#76D3CE;" d="M238.4,158.5c2.4,2.4,7.2,2.4,9.6,0c2.4-2.4,2.4-7.2,0-9.6"/>
<g>
	<circle style="fill:#8EE3E8;" cx="216" cy="184.1" r="4.8"/>
	<circle style="fill:#8EE3E8;" cx="141.6" cy="212.1" r="10.4"/>
	<circle style="fill:#8EE3E8;" cx="117.6" cy="182.5" r="7.2"/>
</g>
<g>
	<path style="fill:#00233F;" d="M56,423.3c-4,4-9.6,4-13.6,0l0,0c-4-4-4-9.6,0-13.6l42.4-42.4c4-4,9.6-4,12.8,0l0,0
		c4,4,4,9.6,0,13.6L56,423.3z"/>
	<path style="fill:#00233F;" d="M440,423.3c4,4,9.6,4,13.6,0l0,0c4-4,4-9.6,0-13.6l-42.4-42.4c-4-4-9.6-4-12.8,0l0,0
		c-4,4-4,9.6,0,13.6L440,423.3z"/>
</g>
<path style="fill:#0B4268;" d="M16,280.9v39.2c0,44.8,33.6,80.8,78.4,80.8h307.2c44.8,0,78.4-36,78.4-80.8v-39.2H16z"/>
<path style="fill:#00233F;" d="M96,400.9h305.6c44.8,0,78.4-36,78.4-80.8v-39.2H16"/>
<path style="fill:#E29524;" d="M496,264.9c0,8.8-7.2,16-16,16H16c-8.8,0-16-7.2-16-16l0,0c0-8.8,7.2-16,16-16h464
	C488.8,248.9,496,256.1,496,264.9L496,264.9z"/>
<path style="fill:#CC6A11;" d="M496,266.5L496,266.5c0,8.8-9.6,14.4-16,14.4H16c-8.8,0-16-6.4-16-15.2l0,0"/>
<g>
	<path style="fill:#00233F;" d="M48,240.9H24V116.1c0-24.8,19.2-46.4,44-46.4s44,19.2,44,43.2H88c0-8-8.8-19.2-20-19.2
		s-20,11.2-20,22.4V240.9z"/>
	<path style="fill:#00233F;" d="M133.6,136.9c0-8,0-3.2,0-4c0-9.6-8-20-16.8-20H86.4c-9.6,0-16.8,11.2-16.8,20c0,0,0-4,0,4H133.6z"
		/>
</g>
<g>
	<circle style="fill:#76D3CE;" cx="324" cy="276.1" r="28.8"/>
	<circle style="fill:#76D3CE;" cx="298.4" cy="259.3" r="20.8"/>
	<circle style="fill:#76D3CE;" cx="352" cy="257.7" r="20.8"/>
	<circle style="fill:#76D3CE;" cx="384.8" cy="275.3" r="20.8"/>
	<circle style="fill:#76D3CE;" cx="384.8" cy="252.1" r="20.8"/>
	<circle style="fill:#76D3CE;" cx="414.4" cy="258.5" r="20.8"/>
	<circle style="fill:#76D3CE;" cx="438.4" cy="246.5" r="17.6"/>
</g>
<g>
	<circle style="fill:#8EE3E8;" cx="315.2" cy="271.3" r="16"/>
	<circle style="fill:#8EE3E8;" cx="354.4" cy="247.3" r="8"/>
	<circle style="fill:#8EE3E8;" cx="379.2" cy="248.9" r="5.6"/>
	<circle style="fill:#8EE3E8;" cx="427.2" cy="215.3" r="5.6"/>
	<circle style="fill:#8EE3E8;" cx="378.4" cy="274.5" r="11.2"/>
	<circle style="fill:#8EE3E8;" cx="409.6" cy="257.7" r="8.8"/>
	<circle style="fill:#8EE3E8;" cx="428" cy="238.5" r="7.2"/>
	<circle style="fill:#8EE3E8;" cx="388.8" cy="225.7" r="7.2"/>
</g>
<g>
</g>
<g>
</g>
<g>
</g>
<g>
</g>
<g>
</g>
<g>
</g>
<g>
</g>
<g>
</g>
<g>
</g>
<g>
</g>
<g>
</g>
<g>
</g>
<g>
</g>
<g>
</g>
<g>
</g>
</svg>
