<?xml version="1.0" encoding="iso-8859-1"?>
<!-- Generator: Adobe Illustrator 19.0.0, SVG Export Plug-In . SVG Version: 6.00 Build 0)  -->
<svg version="1.1" id="Layer_1" xmlns="http://www.w3.org/2000/svg" xmlns:xlink="http://www.w3.org/1999/xlink" x="0px" y="0px"
	 viewBox="0 0 496 496" style="enable-background:new 0 0 496 496;" xml:space="preserve">
<path style="fill:#42B779;" d="M248,0C111.2,0,0,111.2,0,248s111.2,248,248,248s248-111.2,248-248S384.8,0,248,0z M224,453.6
	c-32-4-72-17.6-100.8-38.4l100.8-100V453.6z M272,315.2L372.8,416C344,436.8,304,450.4,272,453.6V315.2z M40.8,248
	C40.8,140.8,120,54.4,224,42.4v215.2L93.6,388.8C59.2,351.2,40.8,302.4,40.8,248z M401.6,388.8L272,256.8V42.4
	C373.6,57.6,455.2,140.8,455.2,248C455.2,302.4,436,351.2,401.6,388.8z"/>
<path style="fill:#2DA06E;" d="M368.8,456.8c-28,20-60.8,33.6-96.8,37.6c118.4-12,212.8-107.2,222.4-226.4
	C485.6,152,387.2,56.8,272,42.4C371.2,56.8,455.2,144,455.2,248c0,7.2,0,13.6-0.8,20.8c0.8,6.4,0.8,13.6,0.8,20.8
	c0,54.4-19.2,103.2-53.6,140.8L272,298.4v-41.6V83.2V42.4c-8-0.8-16.8-0.8-24-0.8s-16,0-24,0.8v40.8v173.6v41.6L94.4,429.6
	C60,392.8,40,343.2,40,289.6c0-7.2,0.8-13.6,1.6-20.8c-0.8-7.2-0.8-13.6-0.8-20.8c0-104,84-191.2,183.2-205.6
	C108.8,56.8,10.4,152,0.8,268.8c9.6,119.2,104,214.4,222.4,226.4c-36-4-68.8-17.6-96.8-37.6l24.8-24.8c-8.8-4.8-20-10.4-28-16.8
	L224,315.2v41.6v97.6v40.8c8,0.8,16.8,0.8,24,0.8c7.2,0,16.8-0.8,24.8-1.6l-0.8-40.8V356v-41.6L372.8,416c-8,5.6-18.4,12-27.2,16
	L368.8,456.8z"/>
<g>
</g>
<g>
</g>
<g>
</g>
<g>
</g>
<g>
</g>
<g>
</g>
<g>
</g>
<g>
</g>
<g>
</g>
<g>
</g>
<g>
</g>
<g>
</g>
<g>
</g>
<g>
</g>
<g>
</g>
</svg>
